<?xml version="1.0" standalone="no"?>
<!DOCTYPE svg PUBLIC "-//W3C//DTD SVG 20010904//EN"
 "http://www.w3.org/TR/2001/REC-SVG-20010904/DTD/svg10.dtd">
<svg version="1.0" xmlns="http://www.w3.org/2000/svg"
 width="600.000000pt" height="600.000000pt" viewBox="0 0 600.000000 600.000000"
 preserveAspectRatio="xMidYMid meet">

<g transform="translate(0.000000,600.000000) scale(0.100000,-0.100000)"
fill="#000000" stroke="none">
<path d="M0 3000 l0 -3000 3000 0 3000 0 0 3000 0 3000 -3000 0 -3000 0 0
-3000z m5012 597 l3 -442 30 -5 c29 -5 30 -7 33 -63 l3 -57 -121 0 -121 0 3
58 c3 56 3 57 36 60 l32 3 -2 387 -3 387 -32 3 c-33 3 -33 4 -33 56 0 29 2 55
4 57 2 2 41 3 85 1 l81 -4 2 -441z m-3250 1 l3 -443 33 -3 32 -3 0 -60 0 -59
-115 0 -115 0 0 60 0 60 30 0 30 0 -2 388 -3 387 -27 3 c-27 3 -28 6 -28 58
l0 54 80 0 80 0 2 -442z m328 -3 l0 -445 30 0 30 0 0 -60 0 -60 -115 0 -115 0
0 59 0 60 33 3 32 3 3 374 c2 267 -1 378 -9 387 -6 8 -22 14 -35 14 -22 0 -24
4 -24 55 l0 55 85 0 85 0 0 -445z m3482 3 l3 -443 33 -3 32 -3 0 -60 0 -59
-80 0 c-79 0 -80 0 -80 25 0 29 -12 32 -31 8 -23 -27 -95 -54 -126 -47 -58 14
-92 44 -125 111 -29 60 -32 75 -36 183 -5 130 10 205 54 272 46 71 145 98 212
58 18 -11 35 -20 37 -20 3 0 5 67 5 149 0 161 0 161 -56 161 -22 0 -24 3 -24
55 l0 55 90 0 90 0 2 -442z m-4962 242 l0 -60 -40 0 -40 0 0 -125 0 -125 145
0 145 0 0 125 0 125 -40 0 -40 0 0 60 0 60 135 0 135 0 0 -59 0 -60 -37 -3
-38 -3 0 -310 0 -310 38 -3 37 -3 0 -60 0 -59 -135 0 -135 0 0 59 0 60 38 3
37 3 3 123 3 122 -146 0 -146 0 3 -122 3 -123 38 -3 37 -3 0 -60 0 -59 -135 0
-135 0 0 59 0 60 38 3 37 3 0 310 0 310 -37 3 -38 3 0 60 0 59 135 0 135 0 0
-60z m5292 -75 c-1 -71 -5 -208 -8 -302 l-6 -173 -38 0 -38 0 -6 178 c-3 97
-8 235 -11 305 l-5 128 57 -3 58 -3 -3 -130z m-4524 -119 c75 -39 113 -122
120 -258 l5 -98 -147 0 c-145 0 -146 0 -146 -22 0 -13 9 -42 19 -65 33 -71
112 -93 191 -53 57 29 61 27 58 -32 -3 -52 -4 -53 -51 -77 -100 -50 -211 -23
-267 65 -38 60 -54 131 -54 234 0 198 76 318 202 320 24 0 55 -6 70 -14z
m1177 -5 c77 -35 120 -112 134 -234 25 -228 -62 -388 -213 -391 -111 -1 -192
84 -216 227 -15 86 -6 199 20 271 21 54 77 118 120 135 40 16 112 12 155 -8z
m1640 0 c75 -35 117 -106 135 -229 10 -74 1 -192 -20 -248 -64 -170 -271 -201
-362 -54 -78 127 -72 371 13 473 61 74 151 96 234 58z m565 -55 l0 -73 -41 -7
c-57 -9 -98 -32 -104 -59 -3 -12 -4 -83 -3 -157 l3 -135 38 -3 37 -3 0 -60 0
-59 -120 0 -120 0 0 60 0 60 30 0 30 0 -2 188 -3 187 -28 3 c-27 3 -28 5 -25
60 l3 57 75 0 75 0 3 -42 c4 -51 16 -55 37 -13 17 33 69 70 98 70 15 0 17 -10
17 -74z m-1445 4 c0 -53 -1 -55 -27 -58 -16 -2 -28 -9 -28 -16 0 -28 52 -272
60 -280 10 -10 8 -18 55 204 44 208 45 210 89 210 18 0 38 -6 43 -12 5 -7 22
-71 37 -143 48 -223 58 -265 66 -265 7 0 60 248 60 282 0 11 -10 18 -27 20
-27 3 -28 5 -28 58 l0 55 100 0 100 0 0 -55 c0 -53 -1 -55 -27 -58 -16 -2 -28
-6 -29 -10 0 -4 -24 -115 -52 -247 l-52 -240 -46 -3 -46 -3 -48 196 c-26 109
-51 193 -55 188 -7 -6 -90 -356 -90 -377 0 -9 -88 -7 -94 2 -2 4 -27 109 -56
232 -63 277 -57 258 -83 262 -18 2 -23 10 -25 47 -5 72 -5 72 105 69 l98 -3 0
-55z m-470 -420 c21 -41 19 -109 -6 -177 -22 -60 -69 -143 -81 -143 -4 0 -14
10 -22 21 -13 20 -13 26 3 58 33 64 34 79 11 127 -23 47 -22 79 6 122 22 34
69 30 89 -8z m3049 8 c9 -12 16 -43 16 -68 0 -58 -22 -90 -60 -90 -38 0 -60
32 -60 90 0 58 22 90 60 90 18 0 34 -8 44 -22z"/>
<path d="M5344 3540 c-74 -30 -108 -220 -59 -336 31 -75 98 -96 154 -48 l31
26 0 164 0 164 -32 20 c-35 21 -60 24 -94 10z"/>
<path d="M1256 3527 c-28 -28 -52 -97 -43 -122 6 -13 21 -15 94 -13 l88 3 -1
48 c0 63 -28 101 -77 105 -28 2 -42 -3 -61 -21z"/>
<path d="M2432 3537 c-86 -41 -97 -322 -16 -386 31 -25 81 -27 111 -6 36 25
58 100 58 195 -1 101 -16 151 -56 185 -33 27 -60 30 -97 12z"/>
<path d="M4074 3538 c-12 -5 -32 -29 -45 -51 -21 -37 -24 -55 -24 -147 0 -89
4 -111 23 -147 12 -23 31 -47 41 -53 25 -13 67 -13 93 1 28 15 58 88 65 161
15 164 -61 281 -153 236z"/>
</g>
</svg>
